HIERARCHY
ROOT SpineBase
{
  OFFSET 0.000000 0.000000 0.000000
  CHANNELS 6 Xposition Yposition Zposition Zrotation Xrotation Yrotation
  JOINT SpineMid
  {
    OFFSET -0.000000 31.482384 0.000000
    CHANNELS 3 Zrotation Xrotation Yrotation
    JOINT SpineShoulder
    {
      OFFSET -0.128293 23.309604 -0.861915
      CHANNELS 3 Zrotation Xrotation Yrotation
      JOINT Neck
      {
        OFFSET -0.087136 7.708867 -0.638324
        CHANNELS 3 Zrotation Xrotation Yrotation
        JOINT Head
        {
          OFFSET 5.069771 15.408829 -2.983756
          CHANNELS 3 Zrotation Xrotation Yrotation
          End Site
          {
            OFFSET 0 0 0
          }
        }
      }
      JOINT ShoulderLeft
      {
        OFFSET -14.759545 -2.155583 -5.309839
        CHANNELS 3 Zrotation Xrotation Yrotation
        JOINT ElbowLeft
        {
          OFFSET -7.458637 -22.790027 -0.060388
          CHANNELS 3 Zrotation Xrotation Yrotation
          JOINT WristLeft
          {
            OFFSET 10.619427 -15.724661 -15.638259
            CHANNELS 3 Zrotation Xrotation Yrotation
            JOINT HandLeft
            {
              OFFSET 6.079892 -1.757250 -0.546147
              CHANNELS 3 Zrotation Xrotation Yrotation
              JOINT HandTipLeft
              {
                OFFSET 3.909882 -5.622937 -6.968843
                CHANNELS 3 Zrotation Xrotation Yrotation
                End Site
                {
                  OFFSET 0 0 0
                }
              }
              JOINT ThumbLeft
              {
                OFFSET 2.754821 -6.965479 -2.782097
                CHANNELS 3 Zrotation Xrotation Yrotation
                End Site
                {
                  OFFSET 0 0 0
                }
              }
            }
          }
        }
      }
      JOINT ShoulderRight
      {
        OFFSET 16.427101 -4.248082 8.384764
        CHANNELS 3 Zrotation Xrotation Yrotation
        JOINT ElbowRight
        {
          OFFSET 4.362755 -30.936495 0.896129
          CHANNELS 3 Zrotation Xrotation Yrotation
          JOINT WristRight
          {
            OFFSET 12.610193 -7.674861 -19.026354
            CHANNELS 3 Zrotation Xrotation Yrotation
            JOINT HandRight
            {
              OFFSET 0.995089 -0.067718 -12.112082
              CHANNELS 3 Zrotation Xrotation Yrotation
              JOINT HandTipRight
              {
                OFFSET -0.694033 -5.649691 -2.156028
                CHANNELS 3 Zrotation Xrotation Yrotation
                End Site
                {
                  OFFSET 0 0 0
                }
              }
              JOINT ThumbRight
              {
                OFFSET -4.662223 3.302367 -5.159909
                CHANNELS 3 Zrotation Xrotation Yrotation
                End Site
                {
                  OFFSET 0 0 0
                }
              }
            }
          }
        }
      }
    }
  }
  JOINT HipLeft
  {
    OFFSET -7.435553 2.411146 -6.406302
    CHANNELS 3 Zrotation Xrotation Yrotation
    JOINT KneeLeft
    {
      OFFSET -4.457596 -37.970486 -0.976109
      CHANNELS 3 Zrotation Xrotation Yrotation
      JOINT AnkleLeft
      {
        OFFSET -4.983036 -36.285307 11.328756
        CHANNELS 3 Zrotation Xrotation Yrotation
        JOINT FootLeft
        {
          OFFSET 4.081423 -4.300520 -12.841808
          CHANNELS 3 Zrotation Xrotation Yrotation
          End Site
          {
            OFFSET 0 0 0
          }
        }
      }
    }
  }
  JOINT HipRight
  {
    OFFSET 6.643179 -0.423123 -0.764685
    CHANNELS 3 Zrotation Xrotation Yrotation
    JOINT KneeRight
    {
      OFFSET 0.081589 -39.793475 3.507834
      CHANNELS 3 Zrotation Xrotation Yrotation
      JOINT AnkleRight
      {
        OFFSET -4.749759 -32.292357 9.331412
        CHANNELS 3 Zrotation Xrotation Yrotation
        JOINT FootRight
        {
          OFFSET 3.895247 -4.334349 -12.844021
          CHANNELS 3 Zrotation Xrotation Yrotation
          End Site
          {
            OFFSET 0 0 0
          }
        }
      }
    }
  }
}
MOTION
Frames: 5
Frame Time: 0.033333
35.968187 81.997619 320.363818 1.174140 -3.423156 -34.430324 -0.008813 -0.279737 34.489785 -0.052211 -0.050690 0.022097 -9.774683 6.073931 -1.703413 0.000000 0.000000 0.000000 35.735007 20.278362 -15.080092 16.984601 -37.556541 -26.865984 -36.665322 -6.492164 46.774102 22.674642 -9.212895 -38.736354 0.000000 0.000000 0.000000 0.000000 0.000000 0.000000 -1.568314 1.961979 -0.238996 22.765592 35.788253 -2.409216 -25.228000 -32.876222 -93.827618 -176.425564 85.495536 -152.289924 0.000000 0.000000 0.000000 0.000000 0.000000 0.000000 -11.595831 5.163933 34.348732 4.849225 -12.277972 1.398742 2.874805 2.259054 -9.820013 0.000000 0.000000 0.000000 -5.426552 4.237344 34.588432 0.859958 -4.594657 0.296465 3.121609 0.810844 -9.860758 0.000000 0.000000 0.000000
36.284363 81.984015 320.174484 1.174624 -4.213766 -34.902209 0.070037 -0.267455 34.966938 -0.027555 -0.050990 0.021987 -10.437363 6.727862 -1.573669 0.000000 0.000000 0.000000 41.009147 22.209423 -18.379469 20.730654 -39.817607 -26.184089 -38.857220 -13.653655 43.509656 25.548785 -7.667872 -37.767911 0.000000 0.000000 0.000000 0.000000 0.000000 0.000000 -0.989654 2.637547 -0.262203 31.561183 37.469509 -13.545533 -6.200118 -13.821299 -67.624491 30.888303 77.949367 6.961716 0.000000 0.000000 0.000000 0.000000 0.000000 0.000000 -13.794064 7.421271 34.960237 4.653076 -14.342035 1.416777 3.492142 1.582080 -9.999192 0.000000 0.000000 0.000000 -5.857588 4.885705 35.127803 0.322504 -4.765373 0.148179 3.094445 -1.614421 -11.394596 0.000000 0.000000 0.000000
36.434558 81.989371 319.717104 1.288772 -5.083732 -35.612559 0.109046 -0.209348 35.691083 -0.007967 -0.031684 0.026099 -10.893546 7.328684 -1.395490 0.000000 0.000000 0.000000 46.064154 23.883442 -21.900701 23.812543 -40.640550 -24.571071 -35.687079 -14.603113 41.197323 22.595647 -3.677959 -36.110259 0.000000 0.000000 0.000000 0.000000 0.000000 0.000000 0.574363 -5.188582 -1.417403 39.400472 49.151074 -22.845924 -12.992317 -9.374289 -43.570041 86.596674 64.225040 -52.803513 0.000000 0.000000 0.000000 0.000000 0.000000 0.000000 -15.949027 9.148531 35.889081 4.257181 -14.598024 1.080153 2.277445 -3.590773 -7.463872 0.000000 0.000000 0.000000 -6.052482 5.249103 35.898389 -0.480473 -4.467438 -0.047973 3.226832 -3.801380 -13.051328 0.000000 0.000000 0.000000
36.452765 81.983182 319.115758 1.422675 -5.810136 -36.251688 0.099934 -0.123088 36.345401 0.002676 0.003657 0.030623 -10.855324 7.910744 -1.261705 0.000000 0.000000 0.000000 49.213949 25.535849 -24.934421 27.876228 -39.382981 -22.508261 -33.427052 -12.893471 44.014330 16.450566 -6.339041 -37.840063 0.000000 0.000000 0.000000 0.000000 0.000000 0.000000 5.000395 -4.556839 -1.342615 36.386660 49.657974 -24.204307 -14.734559 -6.027029 -36.381792 96.413269 66.004865 -71.965602 0.000000 0.000000 0.000000 0.000000 0.000000 0.000000 -17.651064 10.183793 36.741387 3.742189 -12.708965 0.442118 1.726091 -9.541884 -5.238519 0.000000 0.000000 0.000000 -5.723498 5.161880 36.559679 -1.657748 -3.377709 -0.340025 3.606613 -5.660063 -14.095494 0.000000 0.000000 0.000000
36.203859 81.969381 318.230977 1.605972 -6.613667 -36.402758 0.087241 -0.082413 36.518869 -0.001161 0.011256 0.034934 -10.253245 7.968541 -0.908572 0.000000 0.000000 0.000000 54.159495 26.727670 -28.764418 27.796320 -36.947024 -20.397464 -30.003526 -10.228099 45.825921 12.026875 -4.590321 -39.718507 0.000000 0.000000 0.000000 0.000000 0.000000 0.000000 12.771133 -4.665326 -1.385729 26.525643 51.888791 -20.901892 -16.453703 -7.209754 -32.046690 94.088613 65.693575 -74.829902 0.000000 0.000000 0.000000 0.000000 0.000000 0.000000 -18.690537 11.268944 37.110553 2.847483 -9.557130 -0.301390 1.691820 -15.158740 -3.107521 0.000000 0.000000 0.000000 -5.229478 4.360468 36.694784 -2.197173 -1.810644 -0.400410 3.649920 -6.503477 -14.240686 0.000000 0.000000 0.000000
